<svg xmlns="http://www.w3.org/2000/svg" width="600" height="180" viewBox="0 0 600 180" fill="none">
  <defs>
    <linearGradient id="gradient" x1="0%" y1="0%" x2="100%" y2="0%">
      <stop offset="0%" style="stop-color:#E57373;stop-opacity:1" />
      <stop offset="100%" style="stop-color:#9C27B0;stop-opacity:1" />
    </linearGradient>
  </defs>
  
  <rect x="0" y="0" width="600" height="180" rx="15" fill="url(#gradient)"/>
  
  <text x="50" y="60" font-family="Arial" font-size="24" font-weight="bold" fill="white">Network with industry</text>
  <text x="50" y="95" font-family="Arial" font-size="24" font-weight="bold" fill="white">professionals of top</text>
  <text x="50" y="130" font-family="Arial" font-size="24" font-weight="bold" fill="white">companies.</text>
  
  <!-- People illustration -->
  <rect x="450" y="40" width="30" height="60" rx="15" fill="#673AB7"/>
  <circle cx="465" cy="30" r="15" fill="#673AB7"/>
  
  <rect x="490" y="50" width="30" height="60" rx="15" fill="#3F51B5"/>
  <circle cx="505" cy="40" r="15" fill="#3F51B5"/>
  
  <rect x="530" y="45" width="30" height="60" rx="15" fill="#9C27B0"/>
  <circle cx="545" cy="35" r="15" fill="#9C27B0"/>
  
  <!-- Plants/decorations -->
  <path d="M440 120 C450 100, 460 110, 470 90" stroke="#4CAF50" stroke-width="2"/>
  <path d="M480 120 C490 100, 500 110, 510 90" stroke="#4CAF50" stroke-width="2"/>
  <path d="M520 120 C530 100, 540 110, 550 90" stroke="#4CAF50" stroke-width="2"/>
</svg>